<svg width="1136" height="233" viewBox="0 0 1136 233" fill="none" xmlns="http://www.w3.org/2000/svg">
<g clip-path="url(#clip0_1110_304)">
<path d="M983.164 43.8757C980.879 47.1749 972.962 54.6864 962.607 55.2955C964.13 53.0107 967.937 47.6818 974.789 45.3984C970.474 45.906 959.105 45.3984 951.187 39.3075C955.755 37.7841 964.384 36.7696 975.55 39.3075C970.728 36.516 960.17 27.8876 956.516 15.7057C963.368 17.2272 969.713 22.3042 978.596 33.2171C976.312 26.3637 974.789 11.898 983.163 0.477539C991.538 11.898 990.016 26.3637 987.732 33.2171C996.614 22.3042 1002.96 17.2272 1009.81 15.7057C1006.16 27.8876 995.599 36.516 990.777 39.3075C1001.94 36.7696 1010.57 37.7841 1015.14 39.3075C1007.22 45.3984 995.853 45.906 991.539 45.3984C998.391 47.6818 1002.2 53.0107 1003.72 55.2955C993.366 54.6864 985.448 47.1749 983.164 43.8757Z" fill="#64D600"/>
<path d="M516.21 70.2702V43.1199C516.984 22.945 531.349 17.8753 547.482 16.6572L548.962 17.8677L548.026 50.6193V165.016C548.026 168.135 548.572 170.708 549.663 172.736C550.755 174.607 552.783 175.933 555.746 176.713L557.851 177.415V179.754L517.848 182.327L515.742 173.906C515.625 173.984 515.507 174.062 515.389 174.139L515.324 174.182C515.219 174.249 515.115 174.317 515.01 174.384V168.781L515.04 168.759V75.8848C509.27 72.1418 503.343 70.2702 497.261 70.2702C489.775 70.2702 483.38 74.6371 478.078 83.3709C472.775 91.9487 470.124 105.517 470.124 124.076C470.124 126.489 470.166 128.809 470.25 131.038H470.21C471.069 139.387 474.735 159.981 482.773 166.129C490.943 172.378 499.013 174.383 508.001 172.87C505.99 181.034 475.381 190.754 457.772 181.034C446.851 175.005 436.816 154.633 434.983 131.038H434.969C434.856 128.938 434.799 126.774 434.799 124.544C434.799 110.82 437.216 99.5127 442.051 90.623C446.886 81.5773 453.28 74.8711 461.234 70.5042C469.188 65.9813 477.844 63.7199 487.201 63.7199C492.66 63.7199 497.885 64.2658 502.875 65.3575C507.866 66.4492 512.311 68.0868 516.21 70.2702Z" fill="url(#paint0_linear_1110_304)"/>
<path d="M187.247 52.815L161.354 142.792L132.31 45.5983C132.146 45.0734 131.981 44.5336 131.816 43.9788C120.477 5.87236 110.332 35.8759 103.542 55.959C103.231 56.8786 102.927 57.7773 102.63 58.6477L102.541 58.517L102.635 58.8072L75.0303 140.452L52.1052 52.9583C44.8698 28.0361 26.3967 25.5932 6.4418 25.3538H-0.0644531V27.6932L2.74283 28.8629C5.86203 30.2665 8.04547 31.8261 9.29315 33.5417C10.5408 35.1013 11.7105 37.6746 12.8022 41.2617L54.2096 180.456H70.3515L106.378 70.5042L141.469 180.456H157.611L193.481 54.2629C195.35 49.5889 198.802 46.3391 202.034 43.296C203.011 42.3761 203.968 41.4751 204.855 40.5594C206.393 38.9713 207.675 36.8533 208.986 34.6869C211.222 30.9936 213.542 27.1601 217.363 25.5736C212.385 23.1686 203.056 21.8782 195.602 28.1976C189.645 33.2488 188.988 39.3954 188.296 45.8642C188.074 47.9394 187.849 50.0481 187.444 52.164C187.394 52.3935 187.346 52.6249 187.297 52.8583L187.247 52.815Z" fill="url(#paint1_linear_1110_304)"/>
<path fill-rule="evenodd" clip-rule="evenodd" d="M281.411 70.0363C274.237 65.8254 265.581 63.7199 255.444 63.7199C245.774 63.7199 236.495 66.0593 227.605 70.7381C218.871 75.4169 211.697 82.2792 206.082 91.3248C200.468 100.215 197.661 111.054 197.661 123.842C197.661 136.163 200.078 146.769 204.913 155.658C209.747 164.548 216.454 171.41 225.032 176.245C233.609 180.924 243.435 183.263 254.508 183.263C265.737 183.263 275.329 180.846 283.283 176.011C291.392 171.176 297.865 164.47 302.7 155.892L300.36 153.787C296.149 158.622 291.626 162.287 286.792 164.782C281.957 167.277 275.641 168.525 267.843 168.525C256.301 168.525 247.568 164.86 241.641 157.53C235.871 150.044 232.908 137.879 232.752 121.035H232.969C239.796 124.397 266.34 131.038 279.352 131.038C295.62 131.038 300.047 125.491 302.435 121.035H302.466C302.934 119.632 303.245 118.072 303.401 116.356C303.557 114.485 303.635 112.691 303.635 110.976C303.635 101.93 301.686 93.8982 297.787 86.88C294.044 79.7058 288.585 74.0913 281.411 70.0363ZM243.045 72.6096C246.32 69.8024 250.219 68.3987 254.742 68.3987C262.696 68.3987 268.076 72.1418 270.884 79.6278C273.339 86.1741 274.124 96.3576 273.239 110.179C272.763 112.795 271.149 116.076 264.395 116.356H232.752C232.908 103.724 233.843 93.9762 235.559 87.1139C237.43 80.0957 239.926 75.261 243.045 72.6096Z" fill="url(#paint2_linear_1110_304)"/>
<path fill-rule="evenodd" clip-rule="evenodd" d="M399.98 70.0363C392.806 65.8254 384.15 63.7199 374.013 63.7199C364.343 63.7199 355.064 66.0593 346.174 70.7381C337.44 75.4169 330.266 82.2792 324.652 91.3248C319.037 100.215 316.23 111.054 316.23 123.842C316.23 136.163 318.647 146.769 323.482 155.658C328.317 164.548 335.023 171.41 343.601 176.245C352.178 180.924 362.004 183.263 373.077 183.263C384.306 183.263 393.898 180.846 401.852 176.011C409.962 171.176 416.434 164.47 421.269 155.892L418.929 153.787C414.718 158.622 410.196 162.287 405.361 164.782C400.526 167.277 394.21 168.525 386.412 168.525C374.871 168.525 366.137 164.86 360.21 157.53C354.44 150.044 351.477 137.879 351.321 121.035H351.577C358.404 124.397 384.949 131.038 397.96 131.038C414.292 131.038 418.69 125.447 421.071 120.983C421.114 120.904 421.132 120.827 421.126 120.754C421.543 119.424 421.825 117.958 421.971 116.356C422.127 114.485 422.205 112.691 422.205 110.976C422.205 101.93 420.255 93.8982 416.356 86.88C412.613 79.7058 407.154 74.0913 399.98 70.0363ZM391.81 110.15C392.692 96.3436 391.906 86.1695 389.453 79.6278C386.646 72.1418 381.265 68.3987 373.311 68.3987C368.788 68.3987 364.889 69.8024 361.614 72.6096C358.495 75.261 356 80.0957 354.128 87.1139C352.412 93.9762 351.477 103.724 351.321 116.356H382.95C389.737 116.078 391.34 112.772 391.81 110.15Z" fill="url(#paint3_linear_1110_304)"/>
<path d="M902.531 70.2701V44.8419L902.557 44.8581C902.557 23.2562 917.243 17.9209 933.808 16.6611L935.283 17.8676L934.347 50.6192V165.016C934.347 168.135 934.893 170.708 935.985 172.736C937.077 174.607 939.104 175.933 942.067 176.713L944.173 177.415V179.754L904.169 182.327L902.063 173.906C901.804 174.079 901.541 174.25 901.277 174.419V168.819L901.362 168.759V75.8847C895.591 72.1416 889.665 70.2701 883.582 70.2701C876.096 70.2701 869.702 74.637 864.399 83.3708C859.097 91.9486 856.445 105.517 856.445 124.076C856.445 126.489 856.487 128.809 856.572 131.037H856.551C857.41 139.387 861.077 159.981 869.115 166.129C877.284 172.378 885.355 174.383 894.343 172.87C892.332 181.034 861.723 190.754 844.114 181.034C833.192 175.005 823.157 154.633 821.324 131.037H821.291C821.177 128.938 821.12 126.774 821.12 124.544C821.12 110.82 823.538 99.5126 828.372 90.6229C833.207 81.5772 839.602 74.8709 847.555 70.5041C855.509 65.9812 864.165 63.7198 873.523 63.7198C878.981 63.7198 884.206 64.2656 889.197 65.3574C894.188 66.4491 898.632 68.0867 902.531 70.2701Z" fill="url(#paint4_linear_1110_304)"/>
<path d="M564.998 233.56V231.221L567.805 230.285C573.576 228.725 576.461 224.982 576.461 219.056V64.308C588.971 64.4266 600.883 65.4053 609.194 73.4816L609.213 73.5453C609.222 73.5394 609.232 73.5336 609.242 73.5278C609.254 73.5399 609.266 73.552 609.279 73.5641C609.279 73.5641 609.312 73.5243 609.376 73.4467C614.48 70.3751 620.118 67.9906 626.29 66.2931C632.685 64.5776 639.235 63.7198 645.941 63.7198C659.354 63.7198 669.959 68.8665 677.757 79.1598C685.711 89.2972 689.688 103.879 689.688 122.907C689.688 125.563 689.6 128.14 689.425 130.636L689.416 130.758L689.406 130.89L689.394 131.037C687.561 154.633 677.526 175.005 666.605 181.034C648.996 190.754 618.387 181.034 616.376 172.87C625.364 174.383 633.434 172.378 641.604 166.129C649.774 159.88 653.428 138.707 654.207 130.636H654.255C654.327 128.455 654.363 126.19 654.363 123.842C654.363 104.971 652.18 91.7926 647.813 84.3065C643.446 76.6645 637.13 72.8435 628.864 72.8435C623.093 72.8435 616.699 74.715 609.681 78.458V133.897L609.182 177.969C609.114 177.94 609.046 177.911 608.979 177.883V195.928L608.971 196.651L608.979 196.651V218.354C608.979 224.593 611.786 228.492 617.401 230.051L621.845 231.221V233.56H564.998Z" fill="url(#paint5_linear_1110_304)"/>
<path fill-rule="evenodd" clip-rule="evenodd" d="M760.334 63.7198C770.472 63.7198 779.127 65.8252 786.302 70.0362C793.476 74.0911 798.934 79.7057 802.677 86.8798C806.576 93.898 808.526 101.93 808.526 110.976C808.526 112.691 808.448 114.485 808.292 116.356C808.142 118.001 807.85 119.502 807.414 120.859C807.412 120.867 807.41 120.874 807.408 120.881L807.406 120.891C807.401 120.907 807.395 120.923 807.388 120.94L807.372 120.989L807.356 121.035H807.339C804.951 125.491 800.524 131.037 784.256 131.037C771.244 131.037 744.699 124.396 737.872 121.035H737.642C737.798 137.879 740.761 150.044 746.532 157.53C752.458 164.86 761.192 168.525 772.733 168.525C780.531 168.525 786.847 167.277 791.682 164.782C796.517 162.287 801.04 158.621 805.251 153.787L807.59 155.892C802.755 164.47 796.283 171.176 788.173 176.011C780.219 180.846 770.628 183.263 759.398 183.263C748.325 183.263 738.5 180.924 729.922 176.245C721.344 171.41 714.638 164.548 709.803 155.658C704.968 146.769 702.551 136.163 702.551 123.842C702.551 111.054 705.358 100.214 710.973 91.3247C716.587 82.279 723.762 75.4168 732.495 70.738C741.385 66.0592 750.665 63.7198 760.334 63.7198ZM778.147 109.902C777.732 112.559 776.248 116.069 769.245 116.356H737.642C737.798 103.724 738.734 93.976 740.449 87.1138C742.321 80.0956 744.816 75.2608 747.935 72.6095C751.211 69.8022 755.11 68.3986 759.632 68.3986C767.586 68.3986 772.967 72.1416 775.774 79.6277C778.213 86.1302 779.004 96.2217 778.147 109.902Z" fill="url(#paint6_linear_1110_304)"/>
<path d="M954.985 177.415V179.754H1009.73V177.415L1007.39 176.713C1004.42 175.777 1002.32 174.373 1001.07 172.502C999.98 170.63 999.434 168.135 999.434 165.016V99.5126L1000.14 66.2931L997.796 63.9537L954.985 77.7562V80.0956L958.26 80.7974C961.38 81.4213 963.485 82.591 964.577 84.3065C965.824 85.8661 966.448 88.2835 966.448 91.5586V164.782C966.448 167.901 965.824 170.396 964.577 172.268C963.485 174.139 961.38 175.543 958.26 176.479L954.985 177.415Z" fill="url(#paint7_linear_1110_304)"/>
<path fill-rule="evenodd" clip-rule="evenodd" d="M1031.31 175.543C1037.55 180.69 1045.19 183.263 1054.24 183.263C1062.04 183.263 1068.35 181.548 1073.19 178.116C1078.18 174.529 1083.01 170.24 1087.69 165.25C1088.94 170.552 1091.51 174.841 1095.41 178.116C1099.47 181.236 1104.93 182.795 1111.79 182.795C1118.18 182.795 1123.1 181.782 1126.53 179.754C1130.11 177.727 1133.39 174.841 1136.35 171.098L1134.25 169.227H1129.1C1122.55 169.227 1119.27 165.718 1119.27 158.699V106.999C1119.27 91.7146 1115.45 80.7194 1107.81 74.0132C1100.33 67.1509 1089.64 63.7198 1075.76 63.7198C1067.18 63.7198 1059.23 64.8115 1051.9 66.9949C1044.57 69.1784 1038.64 72.4535 1034.12 76.8204C1029.75 81.1873 1027.57 86.5679 1027.57 92.9623V103.027C1035.02 103.027 1048.05 102.48 1052.56 97.7326C1053 97.2759 1053.4 96.874 1053.78 96.4997L1053.78 96.4985L1053.78 96.4976C1055.99 94.317 1057.25 93.0701 1057.51 87.3477L1057.98 84.7744C1058.61 78.8479 1060.01 74.715 1062.19 72.3756C1064.38 69.8802 1067.34 68.6325 1071.08 68.6325C1076.54 68.6325 1080.52 70.816 1083.01 75.1828C1085.67 79.3938 1086.99 86.8019 1086.99 97.4071V115.888L1086.67 115.946C1076.21 116.067 1058.9 119.92 1046.79 122.616L1046.18 122.752C1028.67 126.648 1026.43 130.851 1024.02 135.362L1023.91 135.571C1023.4 136.526 1022.09 140.725 1022.09 153.654C1022.12 153.675 1022.16 153.696 1022.19 153.716C1022.27 163.191 1025.31 170.467 1031.31 175.543ZM1053.8 143.909C1059.02 132.482 1071.54 125.048 1082.84 121.398L1086.99 120.567V159.869C1083.25 162.988 1079.97 165.328 1077.17 166.887C1074.51 168.291 1071.63 168.993 1068.51 168.993C1064.3 168.993 1060.71 167.433 1057.75 164.314C1054.79 161.039 1053.3 156.204 1053.3 149.81C1053.3 147.721 1053.47 145.755 1053.8 143.909Z" fill="url(#paint8_linear_1110_304)"/>
</g>
<defs>
<linearGradient id="paint0_linear_1110_304" x1="192.097" y1="158.219" x2="818.842" y2="119.479" gradientUnits="userSpaceOnUse">
<stop stop-color="#38B000"/>
<stop offset="1" stop-color="#64D600"/>
</linearGradient>
<linearGradient id="paint1_linear_1110_304" x1="192.097" y1="158.219" x2="818.842" y2="119.479" gradientUnits="userSpaceOnUse">
<stop stop-color="#38B000"/>
<stop offset="1" stop-color="#64D600"/>
</linearGradient>
<linearGradient id="paint2_linear_1110_304" x1="192.097" y1="158.219" x2="818.842" y2="119.479" gradientUnits="userSpaceOnUse">
<stop stop-color="#38B000"/>
<stop offset="1" stop-color="#64D600"/>
</linearGradient>
<linearGradient id="paint3_linear_1110_304" x1="192.097" y1="158.219" x2="818.842" y2="119.479" gradientUnits="userSpaceOnUse">
<stop stop-color="#38B000"/>
<stop offset="1" stop-color="#64D600"/>
</linearGradient>
<linearGradient id="paint4_linear_1110_304" x1="192.097" y1="158.219" x2="818.842" y2="119.479" gradientUnits="userSpaceOnUse">
<stop stop-color="#38B000"/>
<stop offset="1" stop-color="#64D600"/>
</linearGradient>
<linearGradient id="paint5_linear_1110_304" x1="192.097" y1="158.219" x2="818.842" y2="119.479" gradientUnits="userSpaceOnUse">
<stop stop-color="#38B000"/>
<stop offset="1" stop-color="#64D600"/>
</linearGradient>
<linearGradient id="paint6_linear_1110_304" x1="192.097" y1="158.219" x2="818.842" y2="119.479" gradientUnits="userSpaceOnUse">
<stop stop-color="#38B000"/>
<stop offset="1" stop-color="#64D600"/>
</linearGradient>
<linearGradient id="paint7_linear_1110_304" x1="192.097" y1="158.219" x2="818.842" y2="119.479" gradientUnits="userSpaceOnUse">
<stop stop-color="#38B000"/>
<stop offset="1" stop-color="#64D600"/>
</linearGradient>
<linearGradient id="paint8_linear_1110_304" x1="192.097" y1="158.219" x2="818.842" y2="119.479" gradientUnits="userSpaceOnUse">
<stop stop-color="#38B000"/>
<stop offset="1" stop-color="#64D600"/>
</linearGradient>
<clipPath id="clip0_1110_304">
<rect width="1136" height="233" fill="white"/>
</clipPath>
</defs>
</svg>
