<svg width="1136" height="233" viewBox="0 0 1136 233" fill="none" xmlns="http://www.w3.org/2000/svg">
<g clip-path="url(#clip0_1110_304)">
<rect width="1136" height="233" fill="#FBFAF9"/>
<path d="M983.228 43.3981C980.944 46.6974 973.026 54.2089 962.671 54.818C964.195 52.5332 968.001 47.2043 974.853 44.9209C970.539 45.4284 959.169 44.9209 951.251 38.8299C955.819 37.3065 964.448 36.2921 975.615 38.8299C970.793 36.0385 960.235 27.41 956.58 15.2282C963.432 16.7497 969.777 21.8267 978.66 32.7396C976.376 25.8861 974.853 11.4204 983.228 0C991.603 11.4204 990.08 25.8861 987.796 32.7396C996.679 21.8267 1003.02 16.7497 1009.88 15.2282C1006.22 27.41 995.663 36.0385 990.841 38.8299C1002.01 36.2921 1010.64 37.3065 1015.21 38.8299C1007.29 44.9209 995.917 45.4284 991.603 44.9209C998.455 47.2043 1002.26 52.5332 1003.78 54.818C993.43 54.2089 985.512 46.6974 983.228 43.3981Z" fill="#64D600"/>
<path d="M902.596 44.3643V69.7926C898.697 67.6091 894.252 65.9715 889.261 64.8798C884.271 63.7881 879.046 63.2423 873.587 63.2423C864.23 63.2423 855.574 65.5037 847.62 70.0265C839.666 74.3934 833.272 81.0997 828.437 90.1453C823.602 99.0351 821.185 110.342 821.185 124.067C821.185 126.296 821.242 128.461 821.355 130.56H821.388C823.222 154.156 833.257 174.528 844.178 180.557C861.787 190.277 892.396 180.557 894.407 172.393C885.419 173.906 877.349 171.901 869.179 165.652C861.141 159.504 857.474 138.909 856.616 130.56H856.636C856.552 128.332 856.51 126.011 856.51 123.599C856.51 105.04 859.161 91.471 864.464 82.8932C869.766 74.1595 876.161 69.7926 883.647 69.7926C889.729 69.7926 895.656 71.6641 901.426 75.4071V168.281L901.341 168.342V173.941C901.606 173.772 901.868 173.601 902.128 173.428L904.233 181.85L944.237 179.277V176.937L942.132 176.235C939.168 175.455 937.141 174.13 936.049 172.258C934.958 170.231 934.412 167.658 934.412 164.538V50.1416L935.347 17.39L933.873 16.1836C917.307 17.4433 902.621 22.7786 902.621 44.3806L902.596 44.3643Z" fill="#9D9B95"/>
<path d="M565.062 230.743V233.083H621.91V230.743L617.465 229.574C611.851 228.014 609.043 224.115 609.043 217.877V196.174L609.035 196.173L609.043 195.45V177.405C609.111 177.434 609.179 177.462 609.246 177.491L609.745 133.419V77.9805C616.763 74.2374 623.158 72.3659 628.928 72.3659C637.194 72.3659 643.51 76.1869 647.877 83.829C652.244 91.3151 654.428 104.494 654.428 123.365C654.428 125.713 654.391 127.977 654.319 130.159H654.272C653.492 138.229 649.838 159.402 641.668 165.651C633.499 171.9 625.428 173.905 616.44 172.392C618.451 180.556 649.06 190.276 666.669 180.556C677.59 174.527 687.625 154.156 689.459 130.56L689.47 130.413L689.48 130.28L689.489 130.159C689.664 127.662 689.753 125.086 689.753 122.429C689.753 103.402 685.776 88.8197 677.822 78.6823C670.024 68.3889 659.418 63.2423 646.006 63.2423C639.299 63.2423 632.749 64.1 626.355 65.8156C620.116 67.5311 614.424 69.9485 609.277 73.0677L607.172 65.8156L604.832 63.4762L565.062 77.0447V79.3841L568.338 80.0859C571.457 80.7098 573.562 81.8795 574.654 83.595C575.902 85.3106 576.526 87.8839 576.526 91.3151V218.578C576.526 224.505 573.64 228.248 567.87 229.808L565.062 230.743Z" fill="#9D9B95"/>
<path fill-rule="evenodd" clip-rule="evenodd" d="M760.399 63.2423C770.536 63.2423 779.192 65.3477 786.366 69.5586C793.54 73.6136 798.999 79.2281 802.742 86.4023C806.641 93.4205 808.59 101.452 808.59 110.498C808.59 112.214 808.512 114.007 808.356 115.879C808.207 117.523 807.914 119.024 807.478 120.382C807.477 120.389 807.475 120.396 807.473 120.404L807.47 120.413C807.465 120.429 807.459 120.446 807.452 120.463L807.436 120.511L807.421 120.558H807.404C805.015 125.013 800.588 130.56 784.32 130.56C771.309 130.56 744.764 123.919 737.937 120.558H737.706C737.862 137.401 740.826 149.566 746.596 157.052C752.523 164.382 761.256 168.047 772.797 168.047C780.595 168.047 786.912 166.8 791.747 164.304C796.581 161.809 801.104 158.144 805.315 153.309L807.655 155.415C802.82 163.992 796.347 170.699 788.238 175.533C780.284 180.368 770.692 182.786 759.463 182.786C748.39 182.786 738.564 180.446 729.987 175.767C721.409 170.933 714.702 164.07 709.868 155.181C705.033 146.291 702.615 135.686 702.615 123.365C702.615 110.576 705.423 99.7369 711.037 90.8472C716.652 81.8015 723.826 74.9393 732.56 70.2605C741.45 65.5817 750.729 63.2423 760.399 63.2423ZM778.212 109.425C777.797 112.081 776.312 115.592 769.31 115.879H737.706C737.862 103.246 738.798 93.4985 740.514 86.6363C742.385 79.6181 744.881 74.7833 748 72.132C751.275 69.3247 755.174 67.9211 759.697 67.9211C767.651 67.9211 773.031 71.6641 775.839 79.1502C778.277 85.6527 779.068 95.7441 778.212 109.425Z" fill="#9D9B95"/>
<path d="M955.05 179.277V176.937L958.325 176.001C961.444 175.066 963.549 173.662 964.641 171.79C965.889 169.919 966.513 167.424 966.513 164.304V91.0811C966.513 87.8059 965.889 85.3886 964.641 83.829C963.549 82.1134 961.444 80.9437 958.325 80.3199L955.05 79.618V77.2786L997.861 63.4762L1000.2 65.8156L999.498 99.0351V164.538C999.498 167.658 1000.04 170.153 1001.14 172.024C1002.38 173.896 1004.49 175.3 1007.45 176.235L1009.79 176.937V179.277H955.05Z" fill="#9D9B95"/>
<path fill-rule="evenodd" clip-rule="evenodd" d="M1031.38 175.066C1037.62 180.212 1045.26 182.786 1054.3 182.786C1062.1 182.786 1068.42 181.07 1073.25 177.639C1078.24 174.052 1083.08 169.763 1087.76 164.772C1089.01 170.075 1091.58 174.364 1095.48 177.639C1099.53 180.758 1104.99 182.318 1111.85 182.318C1118.25 182.318 1123.16 181.304 1126.59 179.277C1130.18 177.249 1133.45 174.364 1136.42 170.621L1134.31 168.749H1129.16C1122.61 168.749 1119.34 165.24 1119.34 158.222V106.521C1119.34 91.2371 1115.52 80.2419 1107.88 73.5356C1100.39 66.6734 1089.71 63.2423 1075.83 63.2423C1067.25 63.2423 1059.29 64.334 1051.96 66.5174C1044.63 68.7009 1038.71 71.976 1034.19 76.3429C1029.82 80.7098 1027.63 86.0904 1027.63 92.4847V102.55C1035.09 102.55 1048.12 102.002 1052.63 97.2551C1053.06 96.7983 1053.47 96.3965 1053.84 96.0222L1053.85 96.021L1053.85 96.0201C1056.05 93.8395 1057.31 92.5926 1057.58 86.8702L1058.05 84.2969C1058.67 78.3704 1060.07 74.2374 1062.26 71.898C1064.44 69.4027 1067.4 68.155 1071.15 68.155C1076.61 68.155 1080.58 70.3384 1083.08 74.7053C1085.73 78.9162 1087.06 86.3243 1087.06 96.9296V115.411C1086.95 115.43 1086.84 115.449 1086.74 115.469C1076.28 115.589 1058.96 119.442 1046.85 122.139L1046.24 122.274C1028.46 126.23 1026.51 129.864 1024.13 134.328C1023.62 135.283 1022.16 140.247 1022.16 153.176C1022.19 153.197 1022.22 153.218 1022.26 153.239C1022.34 162.714 1025.38 169.99 1031.38 175.066ZM1053.86 143.431C1059.08 132.004 1071.61 124.57 1082.9 120.921L1087.06 120.09V159.392C1083.31 162.511 1080.04 164.85 1077.23 166.41C1074.58 167.813 1071.69 168.515 1068.57 168.515C1064.36 168.515 1060.78 166.956 1057.81 163.836C1054.85 160.561 1053.37 155.727 1053.37 149.332C1053.37 147.244 1053.53 145.277 1053.86 143.431Z" fill="#9D9B95"/>
<path d="M516.274 69.7927V42.6424C517.048 22.4674 531.413 17.3978 547.547 16.1797L549.026 17.3901L548.09 50.1417V164.538C548.09 167.658 548.636 170.231 549.728 172.258C550.82 174.13 552.847 175.456 555.81 176.235L557.916 176.937V179.277L517.912 181.85L515.807 173.428C515.689 173.506 515.571 173.584 515.453 173.662L515.388 173.704C515.284 173.772 515.179 173.84 515.074 173.907V168.303L515.105 168.281V75.4073C509.334 71.6642 503.408 69.7927 497.325 69.7927C489.839 69.7927 483.445 74.1596 478.142 82.8933C472.84 91.4711 470.188 105.04 470.188 123.599C470.188 126.012 470.23 128.332 470.315 130.56H470.274C471.133 138.91 474.8 159.503 482.838 165.651C491.007 171.9 499.078 173.906 508.066 172.392C506.055 180.556 475.446 190.276 457.837 180.556C446.916 174.528 436.881 154.156 435.047 130.56H435.034C434.92 128.461 434.863 126.296 434.863 124.067C434.863 110.342 437.281 99.0352 442.116 90.1455C446.95 81.0998 453.345 74.3935 461.299 70.0266C469.253 65.5038 477.908 63.2424 487.266 63.2424C492.725 63.2424 497.949 63.7882 502.94 64.88C507.931 65.9717 512.375 67.6093 516.274 69.7927Z" fill="#64D600"/>
<path d="M187.311 52.3375L161.419 142.314L132.375 45.1208C132.21 44.5959 132.045 44.0561 131.88 43.5012C120.542 5.39482 110.397 35.3984 103.606 55.4815C103.295 56.401 102.991 57.2997 102.695 58.1702L102.606 58.0395L102.7 58.3296L75.0947 139.975L52.1696 52.4807C44.9343 27.5586 26.4612 25.1157 6.50626 24.8762H0V27.2156L2.80728 28.3853C5.92648 29.789 8.10992 31.3486 9.3576 33.0641C10.6053 34.6237 11.775 37.1971 12.8667 40.7841L54.2741 179.978H70.4159L106.443 70.0266L141.534 179.978H157.676L193.546 53.7854C195.414 49.1114 198.866 45.8616 202.098 42.8185C203.075 41.8986 204.032 40.9976 204.919 40.0818C206.458 38.4938 207.74 36.3757 209.051 34.2094C211.286 30.5161 213.606 26.6826 217.427 25.096C212.449 22.6911 203.121 21.4006 195.667 27.7201C189.709 32.7712 189.052 38.9179 188.361 45.3867C188.139 47.4619 187.913 49.5705 187.508 51.6865C187.459 51.916 187.41 52.1474 187.362 52.3807L187.311 52.3375Z" fill="#64D600"/>
<path fill-rule="evenodd" clip-rule="evenodd" d="M255.508 63.2424C265.646 63.2424 274.301 65.3478 281.476 69.5588C288.65 73.6137 294.108 79.2283 297.851 86.4024C301.75 93.4206 303.7 101.453 303.7 110.498C303.7 112.214 303.622 114.007 303.466 115.879C303.31 117.594 302.998 119.154 302.53 120.558H302.5C300.112 125.013 295.684 130.56 279.416 130.56C266.405 130.56 239.86 123.919 233.033 120.558H232.816C232.972 137.401 235.935 149.566 241.706 157.052C247.632 164.382 256.366 168.048 267.907 168.048C275.705 168.048 282.021 166.8 286.856 164.304C291.691 161.809 296.214 158.144 300.425 153.309L302.764 155.415C297.929 163.993 291.457 170.699 283.347 175.534C275.393 180.368 265.802 182.786 254.572 182.786C243.499 182.786 233.674 180.446 225.096 175.768C216.518 170.933 209.812 164.071 204.977 155.181C200.142 146.291 197.725 135.686 197.725 123.365C197.725 110.576 200.532 99.737 206.147 90.8473C211.761 81.8016 218.936 74.9394 227.669 70.2606C236.559 65.5818 245.839 63.2424 255.508 63.2424ZM254.806 67.9212C250.284 67.9212 246.385 69.3248 243.109 72.1321C239.99 74.7834 237.495 79.6182 235.623 86.6364C233.908 93.4986 232.972 103.246 232.816 115.879H264.46C271.213 115.598 272.827 112.317 273.304 109.701C274.188 95.8801 273.403 85.6965 270.948 79.1503C268.141 71.6642 262.76 67.9212 254.806 67.9212Z" fill="#64D600"/>
<path fill-rule="evenodd" clip-rule="evenodd" d="M400.045 69.5588C392.871 65.3478 384.215 63.2424 374.077 63.2424C364.408 63.2424 355.128 65.5818 346.238 70.2606C337.505 74.9394 330.331 81.8016 324.716 90.8473C319.101 99.737 316.294 110.576 316.294 123.365C316.294 135.686 318.712 146.291 323.546 155.181C328.381 164.071 335.087 170.933 343.665 175.768C352.243 180.446 362.068 182.786 373.142 182.786C384.371 182.786 393.962 180.368 401.916 175.534C410.026 170.699 416.499 163.993 421.333 155.415L418.994 153.309C414.783 158.144 410.26 161.809 405.425 164.304C400.591 166.8 394.274 168.048 386.476 168.048C374.935 168.048 366.201 164.382 360.275 157.052C354.504 149.566 351.541 137.401 351.385 120.558H351.642C358.468 123.919 385.013 130.56 398.025 130.56C414.356 130.56 418.754 124.97 421.136 120.506C421.178 120.426 421.196 120.35 421.19 120.276C421.608 118.946 421.889 117.481 422.035 115.879C422.191 114.007 422.269 112.214 422.269 110.498C422.269 101.453 420.319 93.4206 416.421 86.4024C412.677 79.2283 407.219 73.6137 400.045 69.5588ZM391.875 109.672C392.756 95.866 391.971 85.692 389.517 79.1503C386.71 71.6642 381.329 67.9212 373.376 67.9212C368.853 67.9212 364.954 69.3248 361.679 72.1321C358.559 74.7834 356.064 79.6182 354.192 86.6364C352.477 93.4986 351.541 103.246 351.385 115.879H383.014C389.801 115.601 391.405 112.294 391.875 109.672Z" fill="#64D600"/>
</g>
<defs>
<clipPath id="clip0_1110_304">
<rect width="1136" height="233" fill="white"/>
</clipPath>
</defs>
</svg>
